<svg width="80" height="72" viewBox="0 0 80 72" fill="none" xmlns="http://www.w3.org/2000/svg">
<path d="M73.5383 7.3633C69.3492 3.17421 63.8033 0.88462 57.8843 0.88462C51.9653 0.88462 46.4025 3.19117 42.2134 7.38026L40.0256 9.56809L37.8038 7.34634C33.6147 3.15725 28.0349 0.83374 22.1159 0.83374C16.2139 0.83374 10.651 3.14029 6.4789 7.31242C2.2898 11.5015 -0.016745 17.0644 0.000214938 22.9834C0.000214938 28.9024 2.32372 34.4483 6.51282 38.6373L38.3635 70.488C38.8045 70.929 39.3981 71.1664 39.9747 71.1664C40.5513 71.1664 41.1449 70.9459 41.5859 70.505L73.5044 38.7052C77.6935 34.5161 80 28.9532 80 23.0342C80.017 17.1152 77.7274 11.5524 73.5383 7.3633ZM70.282 35.4658L39.9747 65.6545L9.7352 35.415C6.41106 32.0908 4.57939 27.6813 4.57939 22.9834C4.57939 18.2855 6.3941 13.8759 9.71824 10.5687C13.0254 7.26154 17.435 5.42987 22.1159 5.42987C26.8138 5.42987 31.2403 7.26154 34.5645 10.5857L38.3974 14.4186C39.2963 15.3175 40.7379 15.3175 41.6368 14.4186L45.4358 10.6196C48.7599 7.29546 53.1864 5.46379 57.8674 5.46379C62.5483 5.46379 66.9579 7.29546 70.282 10.6026C73.6062 13.9268 75.4209 18.3364 75.4209 23.0342C75.4378 27.7321 73.6062 32.1417 70.282 35.4658Z" fill="black"/>
</svg>
